<?xml version="1.0" encoding="UTF-8" standalone="no"?>
<svg
   xmlns:dc="http://purl.org/dc/elements/1.1/"
   xmlns:cc="http://creativecommons.org/ns#"
   xmlns:rdf="http://www.w3.org/1999/02/22-rdf-syntax-ns#"
   xmlns:svg="http://www.w3.org/2000/svg"
   xmlns="http://www.w3.org/2000/svg"
   id="svg5570"
   version="1.1"
   viewBox="0 0 512 512"
   height="512mm"
   width="512mm">
  <defs
     id="defs5564">
    <clipPath
       id="clipPath416"
       clipPathUnits="userSpaceOnUse">
      <path
         id="path414"
         d="m 106.521,505.844 h 53.4 v -53.401 h -53.4 z" />
    </clipPath>
    <clipPath
       id="clipPath432"
       clipPathUnits="userSpaceOnUse">
      <path
         id="path430"
         d="m 107.103,505.263 h 53.4 v -53.401 h -53.4 z" />
    </clipPath>
    <clipPath
       id="clipPath452"
       clipPathUnits="userSpaceOnUse">
      <path
         id="path450"
         d="m 121.394,490.97 h 53.401 v -53.4 h -53.401 z" />
    </clipPath>
    <clipPath
       id="clipPath468"
       clipPathUnits="userSpaceOnUse">
      <path
         id="path466"
         d="m 121.976,490.39 h 53.4 v -53.401 h -53.4 z" />
    </clipPath>
    <clipPath
       id="clipPath488"
       clipPathUnits="userSpaceOnUse">
      <path
         id="path486"
         d="M 252.477,497.736 H 303.71 V 458.461 H 252.477 Z" />
    </clipPath>
    <clipPath
       id="clipPath516"
       clipPathUnits="userSpaceOnUse">
      <path
         id="path514"
         d="m 260.136,464.691 h 34.022 v -18.162 h -34.022 z" />
    </clipPath>
    <clipPath
       id="clipPath1186"
       clipPathUnits="userSpaceOnUse">
      <path
         id="path1184"
         d="m 371.012,489.894 h 13.025 v -36.841 h -13.025 z" />
    </clipPath>
    <clipPath
       id="clipPath1238"
       clipPathUnits="userSpaceOnUse">
      <path
         id="path1236"
         d="m 416.701,489.894 h 13.026 v -36.841 h -13.026 z" />
    </clipPath>
    <clipPath
       id="clipPath1290"
       clipPathUnits="userSpaceOnUse">
      <path
         id="path1288"
         d="m 381.949,500.831 h 36.84 v -13.025 h -36.84 z" />
    </clipPath>
    <clipPath
       id="clipPath1342"
       clipPathUnits="userSpaceOnUse">
      <path
         id="path1340"
         d="m 381.949,455.141 h 36.84 v -13.025 h -36.84 z" />
    </clipPath>
    <clipPath
       id="clipPath1378"
       clipPathUnits="userSpaceOnUse">
      <path
         id="path1376"
         d="M 377.82,494.007 H 422.9 V 448.929 H 377.82 Z" />
    </clipPath>
    <clipPath
       id="clipPath1398"
       clipPathUnits="userSpaceOnUse">
      <path
         id="path1396"
         d="m 372.796,499.034 h 55.132 v -28.96 h -55.132 z" />
    </clipPath>
    <clipPath
       id="clipPath1422"
       clipPathUnits="userSpaceOnUse">
      <path
         id="path1420"
         d="m 390.837,480.992 h 19.048 v -10.918 h -19.048 z" />
    </clipPath>
    <clipPath
       id="clipPath2348"
       clipPathUnits="userSpaceOnUse">
      <path
         id="path2346"
         d="m 629.877,480.125 h 17.658 V 462.47 h -17.658 z" />
    </clipPath>
    <clipPath
       id="clipPath2364"
       clipPathUnits="userSpaceOnUse">
      <path
         id="path2362"
         d="m 645.464,464.54 h 17.654 v -17.656 h -17.654 z" />
    </clipPath>
    <clipPath
       id="clipPath2404"
       clipPathUnits="userSpaceOnUse">
      <path
         id="path2402"
         d="m 671.973,484.672 h 11.481 v -11.481 h -11.481 z" />
    </clipPath>
    <clipPath
       id="clipPath2420"
       clipPathUnits="userSpaceOnUse">
      <path
         id="path2418"
         d="m 682.108,494.806 h 11.481 v -11.479 h -11.481 z" />
    </clipPath>
    <clipPath
       id="clipPath2076"
       clipPathUnits="userSpaceOnUse">
      <path
         id="path2074"
         d="m 111.314,382.691 h 49.848 v -7.75 h -49.848 z" />
    </clipPath>
    <clipPath
       id="clipPath2096"
       clipPathUnits="userSpaceOnUse">
      <path
         id="path2094"
         d="m 107.858,373.707 h 56.759 v -3.637 h -56.759 z" />
    </clipPath>
    <clipPath
       id="clipPath2112"
       clipPathUnits="userSpaceOnUse">
      <path
         id="path2110"
         d="m 132.422,358.392 h 29.332 v -21.443 h -29.332 z" />
    </clipPath>
    <clipPath
       id="clipPath2140"
       clipPathUnits="userSpaceOnUse">
      <path
         id="path2138"
         d="m 140.822,357.173 h 19.79 v -19.789 h -19.79 z" />
    </clipPath>
    <clipPath
       id="clipPath2156"
       clipPathUnits="userSpaceOnUse">
      <path
         id="path2154"
         d="m 140.822,357.173 h 17.379 v -17.375 h -17.379 z" />
    </clipPath>
    <clipPath
       id="clipPath2176"
       clipPathUnits="userSpaceOnUse">
      <path
         id="path2174"
         d="m 145.11,344.851 h 3.8 v -3.797 h -3.8 z" />
    </clipPath>
    <clipPath
       id="clipPath2192"
       clipPathUnits="userSpaceOnUse">
      <path
         id="path2190"
         d="m 151.674,354.583 h 6.273 v -6.275 h -6.273 z" />
    </clipPath>
    <clipPath
       id="clipPath2448"
       clipPathUnits="userSpaceOnUse">
      <path
         id="path2446"
         d="m 242.236,390.165 h 56.261 v -4.573 h -56.261 z" />
    </clipPath>
    <clipPath
       id="clipPath2464"
       clipPathUnits="userSpaceOnUse">
      <path
         id="path2462"
         d="m 250.983,390.165 h 15.954 v -15.954 h -15.954 z" />
    </clipPath>
    <clipPath
       id="clipPath2478"
       clipPathUnits="userSpaceOnUse">
      <path
         id="path2476"
         d="m 289.59,390.165 h 8.907 v -15.954 h -8.907 z" />
    </clipPath>
    <clipPath
       id="clipPath2502"
       clipPathUnits="userSpaceOnUse">
      <path
         id="path2500"
         d="m 242.236,370.165 h 56.261 v -4.573 h -56.261 z" />
    </clipPath>
    <clipPath
       id="clipPath2518"
       clipPathUnits="userSpaceOnUse">
      <path
         id="path2516"
         d="m 250.983,370.165 h 15.954 v -15.954 h -15.954 z" />
    </clipPath>
    <clipPath
       id="clipPath2532"
       clipPathUnits="userSpaceOnUse">
      <path
         id="path2530"
         d="m 289.59,370.165 h 8.907 v -15.954 h -8.907 z" />
    </clipPath>
    <clipPath
       id="clipPath2556"
       clipPathUnits="userSpaceOnUse">
      <path
         id="path2554"
         d="m 242.236,350.165 h 56.261 v -4.573 h -56.261 z" />
    </clipPath>
    <clipPath
       id="clipPath2572"
       clipPathUnits="userSpaceOnUse">
      <path
         id="path2570"
         d="m 250.983,350.165 h 15.954 v -15.954 h -15.954 z" />
    </clipPath>
    <clipPath
       id="clipPath2586"
       clipPathUnits="userSpaceOnUse">
      <path
         id="path2584"
         d="m 289.59,350.165 h 8.907 v -15.954 h -8.907 z" />
    </clipPath>
    <clipPath
       id="clipPath2606"
       clipPathUnits="userSpaceOnUse">
      <path
         id="path2604"
         d="m 281.489,396.801 h 28.519 v -36.579 h -28.519 z" />
    </clipPath>
    <clipPath
       id="clipPath2622"
       clipPathUnits="userSpaceOnUse">
      <path
         id="path2620"
         d="m 283.593,399.946 h 12.931 v -7.461 h -12.931 z" />
    </clipPath>
    <clipPath
       id="clipPath2638"
       clipPathUnits="userSpaceOnUse">
      <path
         id="path2636"
         d="m 286.668,374.432 h 8.201 v -5.317 h -8.201 z" />
    </clipPath>
    <clipPath
       id="clipPath2024"
       clipPathUnits="userSpaceOnUse">
      <path
         id="path2022"
         d="m 394.441,370.984 h 11.848 v -6.516 h -11.848 z" />
    </clipPath>
    <clipPath
       id="clipPath2040"
       clipPathUnits="userSpaceOnUse">
      <path
         id="path2038"
         d="m 396.527,375.613 h 7.676 v -3.924 h -7.676 z" />
    </clipPath>
    <clipPath
       id="clipPath1656"
       clipPathUnits="userSpaceOnUse">
      <path
         id="path1654"
         d="m 533.209,353.736 h 13.128 v -11.67 h -13.128 z" />
    </clipPath>
  </defs>
  <metadata
     id="metadata5567">
    <rdf:RDF>
      <cc:Work
         rdf:about="">
        <dc:format>image/svg+xml</dc:format>
        <dc:type
           rdf:resource="http://purl.org/dc/dcmitype/StillImage" />
        <dc:title></dc:title>
      </cc:Work>
    </rdf:RDF>
  </metadata>
  <g
     transform="translate(0,215)"
     id="layer1">
    <g
       style="stroke-width:0.05060491"
       id="g6171"
       transform="matrix(6.9712169,0,0,-6.9712169,-724.48669,3324.4963)">
      <g
         style="stroke-width:0.00262133"
         id="g6508"
         transform="matrix(0.97692956,0,0,0.97692956,-375.95661,118.90338)">
        <g
           style="stroke-width:0.00262133"
           id="g1602"
           transform="translate(552.7861,336.5098)">
          <path
             d="M 0,0 C 0,-2.326 -1.887,-4.213 -4.213,-4.213 H -47.91 c -2.326,0 -4.211,1.887 -4.211,4.213 v 54.758 c 0,2.326 1.885,4.213 4.211,4.213 H -20 l 2.031,-13.756 c 2.326,0 4.213,-1.887 4.213,-4.213 L 0,38.992 Z"
             style="fill:#dce2e9;fill-opacity:1;fill-rule:nonzero;stroke:none;stroke-width:0.00262133"
             id="path1604" />
        </g>
        <g
           style="stroke-width:0.00262133"
           id="g1606"
           transform="translate(532.7861,381.8887)">
          <path
             d="m 0,0 h -22.121 c -1.106,0 -2,0.895 -2,2 0,1.104 0.894,2 2,2 H 0 C 1.104,4 2,3.104 2,2 2,0.895 1.104,0 0,0"
             style="fill:#8c93a1;fill-opacity:1;fill-rule:nonzero;stroke:none;stroke-width:0.00262133"
             id="path1608" />
        </g>
        <g
           style="stroke-width:0.00262133"
           id="g1610"
           transform="translate(542.7861,373.8887)">
          <path
             d="m 0,0 h -32.121 c -1.106,0 -2,0.895 -2,2 0,1.104 0.894,2 2,2 H 0 C 1.104,4 2,3.104 2,2 2,0.895 1.104,0 0,0"
             style="fill:#8c93a1;fill-opacity:1;fill-rule:nonzero;stroke:none;stroke-width:0.00262133"
             id="path1612" />
        </g>
        <g
           style="stroke-width:0.00262133"
           id="g1614"
           transform="translate(542.7861,365.8887)">
          <path
             d="m 0,0 h -32.121 c -1.106,0 -2,0.895 -2,2 0,1.104 0.894,2 2,2 H 0 C 1.104,4 2,3.104 2,2 2,0.895 1.104,0 0,0"
             style="fill:#8c93a1;fill-opacity:1;fill-rule:nonzero;stroke:none;stroke-width:0.00262133"
             id="path1616" />
        </g>
        <g
           style="stroke-width:0.00262133"
           id="g1618"
           transform="translate(542.7861,357.8887)">
          <path
             d="m 0,0 h -32.121 c -1.106,0 -2,0.895 -2,2 0,1.104 0.894,2 2,2 H 0 C 1.104,4 2,3.104 2,2 2,0.895 1.104,0 0,0"
             style="fill:#8c93a1;fill-opacity:1;fill-rule:nonzero;stroke:none;stroke-width:0.00262133"
             id="path1620" />
        </g>
        <g
           style="stroke-width:0.00262133"
           id="g1622"
           transform="translate(522.7861,349.8887)">
          <path
             d="m 0,0 h -12.121 c -1.106,0 -2,0.895 -2,2 0,1.104 0.894,2 2,2 H 0 C 1.104,4 2,3.104 2,2 2,0.895 1.104,0 0,0"
             style="fill:#8c93a1;fill-opacity:1;fill-rule:nonzero;stroke:none;stroke-width:0.00262133"
             id="path1624" />
        </g>
        <g
           style="stroke-width:0.00262133"
           id="g1626"
           transform="translate(522.7861,341.8887)">
          <path
             d="m 0,0 h -12.121 c -1.106,0 -2,0.895 -2,2 0,1.104 0.894,2 2,2 H 0 C 1.104,4 2,3.104 2,2 2,0.895 1.104,0 0,0"
             style="fill:#8c93a1;fill-opacity:1;fill-rule:nonzero;stroke:none;stroke-width:0.00262133"
             id="path1628" />
        </g>
        <g
           style="stroke-width:0.00262133"
           id="g1630"
           transform="translate(532.8076,395.4805)">
          <path
             d="m 0,0 h -0.021 v -15.787 c 0,-2.326 1.884,-4.213 4.21,-4.213 h 15.79 v 0.021 z"
             style="fill:#bfc8d5;fill-opacity:1;fill-rule:nonzero;stroke:none;stroke-width:0.00262133"
             id="path1632" />
        </g>
        <g
           style="stroke-width:0.00262133"
           id="g1634"
           transform="translate(558.374,336.6406)">
          <path
             d="m 0,0 c -1.824,1.824 -3.513,3.281 -5.064,4.436 2.422,2.878 3.958,5.867 1.259,7.673 -4.441,2.969 -18.543,6.245 -21.558,3.227 -3.016,-3.016 0.258,-17.117 3.226,-21.557 1.807,-2.701 4.795,-1.166 7.675,1.258 1.154,-1.551 2.61,-3.238 4.435,-5.062 3.629,-3.629 6.316,-0.289 8.316,1.709 v 0.002 C 0.287,-6.316 3.629,-3.629 0,0"
             style="fill:#f7971d;fill-opacity:1;fill-rule:nonzero;stroke:none;stroke-width:0.00262133"
             id="path1636" />
        </g>
        <g
           style="stroke-width:0.00262133"
           id="g1638"
           transform="translate(555.7725,349.3965)">
          <path
             d="M 0,0 C 0.38,-0.891 0.33,-2.451 0.204,-3.449 0.078,-4.447 -1.469,-3.088 -1.734,-1.9 -2,-0.713 -0.297,0.695 0,0"
             style="fill:#f7971d;fill-opacity:1;fill-rule:nonzero;stroke:none;stroke-width:0.00262133"
             id="path1640" />
        </g>
        <g
           style="stroke-width:0.00262133"
           id="g1642"
           transform="translate(559.7686,336.5371)">
          <path
             d="M 0,0 C 0.38,-0.891 0.33,-2.451 0.204,-3.449 0.078,-4.447 -1.469,-3.088 -1.734,-1.9 -2,-0.713 -0.297,0.695 0,0"
             style="fill:#f7971d;fill-opacity:1;fill-rule:nonzero;stroke:none;stroke-width:0.00262133"
             id="path1644" />
        </g>
        <g
           style="stroke-width:0.00262133"
           id="g1646"
           transform="translate(558.374,338.6406)">
          <path
             d="m 0,0 c -1.824,1.824 -3.513,3.281 -5.064,4.436 2.422,2.878 3.958,5.867 1.259,7.673 -4.441,2.969 -18.543,6.245 -21.558,3.227 -3.016,-3.016 0.258,-17.117 3.226,-21.557 1.807,-2.701 4.795,-1.166 7.675,1.258 1.154,-1.551 2.61,-3.238 4.435,-5.062 3.629,-3.629 6.316,-0.289 8.316,1.709 v 0.002 C 0.287,-6.316 3.629,-3.629 0,0"
             style="fill:#ffc52f;fill-opacity:1;fill-rule:nonzero;stroke:none;stroke-width:0.00262133"
             id="path1648" />
        </g>
        <g
           style="stroke-width:0.00262133"
           id="g1650">
          <g
             style="stroke-width:0.00262133"
             id="g1652" />
          <g
             style="stroke-width:0.00262133"
             id="g1664">
            <g
               clip-path="url(#clipPath1656)"
               id="g1662"
               style="opacity:0.5;stroke-width:0.00262133">
              <g
                 style="stroke-width:0.00262133"
                 transform="translate(544.2617,353.1074)"
                 id="g1660">
                <path
                   d="m 0,0 c -4.278,0.801 -8.516,1.014 -9.955,-0.426 -1.283,-1.283 -1.347,-4.806 -0.679,-8.57 C -9.322,-16.385 7.928,-1.486 0,0"
                   style="fill:#ffc52f;fill-opacity:1;fill-rule:nonzero;stroke:none;stroke-width:0.00262133"
                   id="path1658" />
              </g>
            </g>
          </g>
        </g>
      </g>
    </g>
  </g>
</svg>
