<?xml version="1.0" encoding="UTF-8" standalone="no"?>
<!-- Created with Inkscape (http://www.inkscape.org/) -->

<svg
   width="64pt"
   height="64pt"
   viewBox="0 0 22.577778 22.577778"
   version="1.1"
   id="svg831"
   inkscape:version="1.1.1 (3bf5ae0d25, 2021-09-20)"
   sodipodi:docname="Export - Unblash - 64px.svg"
   xmlns:inkscape="http://www.inkscape.org/namespaces/inkscape"
   xmlns:sodipodi="http://sodipodi.sourceforge.net/DTD/sodipodi-0.dtd"
   xmlns="http://www.w3.org/2000/svg"
   xmlns:svg="http://www.w3.org/2000/svg"
   xmlns:rdf="http://www.w3.org/1999/02/22-rdf-syntax-ns#"
   xmlns:cc="http://creativecommons.org/ns#"
   xmlns:dc="http://purl.org/dc/elements/1.1/">
  <defs
     id="defs825">
    <pattern
       id="EMFhbasepattern"
       patternUnits="userSpaceOnUse"
       width="6"
       height="6"
       x="0"
       y="0" />
    <pattern
       id="EMFhbasepattern-9"
       patternUnits="userSpaceOnUse"
       width="6"
       height="6"
       x="0"
       y="0" />
    <pattern
       id="EMFhbasepattern-0"
       patternUnits="userSpaceOnUse"
       width="6"
       height="6"
       x="0"
       y="0" />
    <pattern
       id="EMFhbasepattern-7"
       patternUnits="userSpaceOnUse"
       width="6"
       height="6"
       x="0"
       y="0" />
    <pattern
       id="EMFhbasepattern-2"
       patternUnits="userSpaceOnUse"
       width="6"
       height="6"
       x="0"
       y="0" />
    <pattern
       id="EMFhbasepattern-98"
       patternUnits="userSpaceOnUse"
       width="6"
       height="6"
       x="0"
       y="0" />
    <pattern
       id="EMFhbasepattern-6"
       patternUnits="userSpaceOnUse"
       width="6"
       height="6"
       x="0"
       y="0" />
    <pattern
       id="EMFhbasepattern-01"
       patternUnits="userSpaceOnUse"
       width="6"
       height="6"
       x="0"
       y="0" />
    <pattern
       id="EMFhbasepattern-07"
       patternUnits="userSpaceOnUse"
       width="6"
       height="6"
       x="0"
       y="0" />
    <pattern
       id="EMFhbasepattern-8"
       patternUnits="userSpaceOnUse"
       width="6"
       height="6"
       x="0"
       y="0" />
    <pattern
       id="EMFhbasepattern-4"
       patternUnits="userSpaceOnUse"
       width="6"
       height="6"
       x="0"
       y="0" />
    <pattern
       id="EMFhbasepattern-40"
       patternUnits="userSpaceOnUse"
       width="6"
       height="6"
       x="0"
       y="0" />
    <pattern
       id="EMFhbasepattern-08"
       patternUnits="userSpaceOnUse"
       width="6"
       height="6"
       x="0"
       y="0" />
    <pattern
       id="EMFhbasepattern-04"
       patternUnits="userSpaceOnUse"
       width="6"
       height="6"
       x="0"
       y="0" />
    <pattern
       id="EMFhbasepattern-014"
       patternUnits="userSpaceOnUse"
       width="6"
       height="6"
       x="0"
       y="0" />
    <pattern
       id="EMFhbasepattern-27"
       patternUnits="userSpaceOnUse"
       width="6"
       height="6"
       x="0"
       y="0" />
    <pattern
       id="EMFhbasepattern-09"
       patternUnits="userSpaceOnUse"
       width="6"
       height="6"
       x="0"
       y="0" />
    <pattern
       id="EMFhbasepattern-5"
       patternUnits="userSpaceOnUse"
       width="6"
       height="6"
       x="0"
       y="0" />
    <pattern
       id="EMFhbasepattern-018"
       patternUnits="userSpaceOnUse"
       width="6"
       height="6"
       x="0"
       y="0" />
  </defs>
  <sodipodi:namedview
     id="base"
     pagecolor="#ffffff"
     bordercolor="#666666"
     borderopacity="1.0"
     inkscape:pageopacity="0.0"
     inkscape:pageshadow="2"
     inkscape:zoom="9.3164063"
     inkscape:cx="41.21761"
     inkscape:cy="42.666666"
     inkscape:document-units="pt"
     inkscape:current-layer="layer1"
     showgrid="false"
     units="pt"
     inkscape:window-width="1920"
     inkscape:window-height="1001"
     inkscape:window-x="-9"
     inkscape:window-y="41"
     inkscape:window-maximized="1"
     inkscape:pagecheckerboard="true"
     inkscape:showpageshadow="false"
     inkscape:object-paths="true"
     inkscape:snap-intersection-paths="true"
     inkscape:snap-smooth-nodes="true"
     inkscape:snap-midpoints="true"
     showguides="true"
     inkscape:snap-bbox="true"
     inkscape:bbox-nodes="true"
     inkscape:snap-nodes="false"
     inkscape:snap-global="true">
    <inkscape:grid
       type="xygrid"
       id="grid1378" />
    <sodipodi:guide
       position="0.97013831,21.607643"
       orientation="78.000048,0"
       id="guide1380"
       inkscape:locked="false" />
    <sodipodi:guide
       position="0.97013831,0.97013129"
       orientation="0,78.000005"
       id="guide1382"
       inkscape:locked="false" />
    <sodipodi:guide
       position="21.607639,0.97013129"
       orientation="-78.000048,0"
       id="guide1384"
       inkscape:locked="false" />
    <sodipodi:guide
       position="21.607639,21.607643"
       orientation="0,-78.000005"
       id="guide1386"
       inkscape:locked="false" />
  </sodipodi:namedview>
  <metadata
     id="metadata828">
    <rdf:RDF>
      <cc:Work
         rdf:about="">
        <dc:format>image/svg+xml</dc:format>
        <dc:type
           rdf:resource="http://purl.org/dc/dcmitype/StillImage" />
      </cc:Work>
    </rdf:RDF>
  </metadata>
  <g
     inkscape:label="Icon"
     inkscape:groupmode="layer"
     id="layer1"
     transform="translate(0,-274.42223)">
    <g
       id="g3862"
       style="display:inline;stroke-width:0.798956"
       transform="matrix(1.251633,0,0,1.251633,77.048611,-37.247932)">
      <g
         id="g1340"
         style="stroke-width:0.798956">
        <path
           style="color:#000000;fill:#e59f2e;stroke-width:0.798956;stroke-linecap:round;stroke-linejoin:round;-inkscape-stroke:none"
           d="m -56.814453,253.65625 a 0.26461046,0.26461046 0 0 0 -0.263672,0.26953 l 0.07422,3.66797 a 0.26461046,0.26461046 0 0 0 0.269531,0.25781 l 10.244141,-0.16992 a 0.26461046,0.26461046 0 0 0 0.259765,-0.26367 v -1.97266 c 0,-0.98549 -0.805525,-1.78906 -1.791015,-1.78906 z"
           id="path391365" />
        <path
           style="color:#000000;fill:#fcba4c;stroke-width:0.798956;stroke-linecap:round;stroke-linejoin:round;-inkscape-stroke:none"
           d="m -47.451172,256.32815 c -0.09048,-0.78667 -0.76009,-1.39843 -1.568359,-1.39843 h -5.701172 c -0.261814,0 -0.497475,-0.15772 -0.595703,-0.40039 L -55.6875,253.6094 c -0.178526,-0.44107 -0.608164,-0.73046 -1.083984,-0.73046 l -2.210938,-3e-5 c -0.991108,0 -1.800781,0.80968 -1.800781,1.80078 v 6.71289 c 0,0.98548 0.805528,1.78906 1.791016,1.78906 h 1.996093 z"
           id="path391557"
           sodipodi:nodetypes="cssccccssscc" />
        <path
           style="color:#000000;fill:#fcba4c;stroke-width:0.798956;stroke-linecap:round;stroke-linejoin:round;-inkscape-stroke:none"
           d="m -56.183594,256.09375 c -0.915914,0 -1.717187,0.62661 -1.9375,1.51562 l -0.974609,3.92969 c -0.205454,0.82907 0.432972,1.64258 1.287109,1.64258 h 10.564453 c 0.915912,0 1.717187,-0.62661 1.9375,-1.51562 l 0.972657,-3.92969 c 0.205454,-0.82907 -0.431016,-1.64258 -1.285157,-1.64258 z"
           id="path391886" />
        <path
           id="path3061-5"
           style="color:#000000;fill:#e59f2e;fill-opacity:1;stroke-width:3.01968;stroke-linecap:round;stroke-linejoin:round;-inkscape-stroke:none"
           d="m -222.36133,-74.027344 -0.49609,2.001953 h 52.23242 l 0.49609,-2.001953 z"
           transform="matrix(0.26458334,0,0,0.26458334,0,280.06666)" />
        <path
           id="path591076"
           style="color:#000000;fill:#ca7d02;fill-opacity:1;stroke-width:0.798956;stroke-linecap:round;stroke-linejoin:round;-inkscape-stroke:none"
           d="m -56.183653,256.09396 c -0.915914,0 -1.717035,0.62615 -1.937348,1.51516 l -0.974619,3.92999 c -0.150016,0.60537 0.149979,1.20188 0.655259,1.48001 -0.153644,-0.2785 0.02713,-0.61338 0.110751,-0.95085 l 1.000936,-3.92947 c 0.220313,-0.88901 0.758274,-1.51567 1.674188,-1.51567 h 10.56473 c 0.23005,0 0.443664,0.0593 0.629936,0.16175 -0.223319,-0.40549 -0.652801,-0.69092 -1.159102,-0.69092 z"
           sodipodi:nodetypes="scccccsscss" />
      </g>
      <path
         id="rect974-2"
         style="color:#000000;display:inline;fill:#000000;stroke-width:0.798956;stroke-linecap:round;stroke-linejoin:round;-inkscape-stroke:none"
         d="m -48.02136,254.18555 c 0.699508,0 1.261422,0.56037 1.261422,1.25987 v 0.64854 h -0.736904 c -0.183124,-0.67046 -0.796968,-1.16427 -1.522905,-1.16427 h -5.700945 c -0.261814,0 -0.497602,-0.15782 -0.595829,-0.40049 l -0.371038,-0.91984 c -0.178525,-0.44107 -0.608352,-0.7307 -1.08417,-0.7307 h -2.210718 c -0.991108,0 -1.800924,0.80982 -1.800924,1.80092 v 6.71277 c 0,0.98548 0.805617,1.78904 1.791105,1.78904 h 1.183907 10.564212 c 0.915914,0 1.717038,-0.62615 1.937351,-1.51516 l 0.973066,-3.92999 c 0.205454,-0.82907 -0.431051,-1.64228 -1.285192,-1.64228 h -0.611333 v -0.64854 c 0,-0.98549 -0.805614,-1.78903 -1.791105,-1.78903 h -6.676078 c -0.146127,-5.9e-4 -0.265049,0.11742 -0.265618,0.26354 -5.29e-4,0.14694 0.118684,0.2662 0.265618,0.26562 z m -10.961087,-0.77721 h 2.210718 c 0.261808,0 0.495533,0.1578 0.593762,0.40049 l 0.371552,0.91984 c 0.17853,0.44106 0.609906,0.73019 1.085723,0.73019 h 5.700945 c 0.435076,0 0.804008,0.26156 0.964282,0.6351 h -8.128188 c -0.915914,0 -1.717035,0.62615 -1.937348,1.51516 l -0.974619,3.92999 c -0.10065,0.40615 0.0016,0.80824 0.232029,1.11311 h -0.128675 c -0.6995,0 -1.261422,-0.56037 -1.261422,-1.25987 v -6.71277 c 0,-0.70512 0.566118,-1.27124 1.271241,-1.27124 z m 2.798794,3.21479 h 10.564731 c 0.522986,0 0.89681,0.47836 0.771011,0.98599 l -0.710549,2.87114 h -12.729456 l 0.680577,-2.74402 c 0.16247,-0.6556 0.748258,-1.11311 1.423686,-1.11311 z m -2.235523,4.38681 h 12.729456 l -0.130741,0.52917 c -0.162467,0.6556 -0.748252,1.11311 -1.423686,1.11311 h -10.564212 c -0.522989,0 -0.899395,-0.47836 -0.773597,-0.98599 z"
         sodipodi:nodetypes="csccssccsssssccccscsscsccssccsscscccssssssccccsccccccc" />
    </g>
  </g>
</svg>
